<svg xmlns="http://www.w3.org/2000/svg" width="304" height="304" fill="none"><path fill="#fff" d="M61.648 303.977q-16.904 0-30.966-8.238-14.062-8.381-22.443-22.444Q-.001 259.232 0 242.33q0-17.046 8.239-31.108 8.38-14.062 22.443-22.444 14.062-8.38 30.966-8.38h32.954v-57.103H61.648q-16.904 0-30.966-8.238-14.062-8.38-22.443-22.301Q-.001 78.693 0 61.648t8.239-30.966q8.38-14.063 22.443-22.301Q44.744 0 61.648 0q17.045 0 31.108 8.38 14.063 8.24 22.443 22.302 8.38 13.92 8.381 30.966v32.67h57.102v-32.67q0-17.046 8.238-30.966 8.381-14.063 22.302-22.301Q225.284 0 242.33 0t30.965 8.38q14.063 8.24 22.302 22.302 8.38 13.92 8.38 30.966t-8.38 31.108q-8.24 13.92-22.302 22.301-13.92 8.238-30.965 8.238h-32.671v57.103h32.671q17.045 0 30.965 8.38 14.063 8.382 22.302 22.444 8.38 14.062 8.38 31.108 0 16.902-8.38 30.965-8.24 14.063-22.302 22.444-13.92 8.238-30.965 8.238t-31.108-8.238q-13.92-8.381-22.302-22.444-8.238-14.063-8.238-30.965v-32.955H123.58v32.955q0 16.902-8.381 30.965t-22.443 22.444q-14.063 8.238-31.108 8.238m0-28.977q9.09 0 16.477-4.403 7.528-4.404 11.932-11.79 4.545-7.529 4.545-16.477v-32.955H61.648q-8.95 0-16.478 4.545-7.386 4.404-11.79 11.932-4.403 7.387-4.403 16.478 0 8.948 4.404 16.477 4.403 7.386 11.79 11.79Q52.698 275 61.647 275m0-180.682h32.954v-32.67q0-9.09-4.545-16.478-4.404-7.386-11.932-11.79-7.387-4.403-16.477-4.403-8.95 0-16.478 4.404-7.386 4.403-11.79 11.79t-4.403 16.477 4.404 16.62q4.403 7.385 11.79 11.789 7.527 4.26 16.477 4.261m148.011 0h32.671q9.09 0 16.477-4.261 7.386-4.404 11.79-11.79Q275 70.738 275 61.647q0-9.09-4.403-16.476-4.404-7.387-11.79-11.79-7.387-4.404-16.477-4.404-9.092 0-16.62 4.404-7.386 4.403-11.79 11.79-4.26 7.386-4.261 16.477zM242.33 275q9.09 0 16.477-4.403 7.386-4.404 11.79-11.79Q275 251.278 275 242.33q0-9.091-4.403-16.478-4.404-7.528-11.79-11.932-7.387-4.545-16.477-4.545h-32.671v32.955q0 8.948 4.261 16.477 4.404 7.386 11.79 11.79Q233.238 275 242.33 275m-118.75-94.602h57.102v-57.103H123.58z"/></svg>