<?xml version="1.0" standalone="no"?>
<!DOCTYPE svg PUBLIC "-//W3C//DTD SVG 20010904//EN"
 "http://www.w3.org/TR/2001/REC-SVG-20010904/DTD/svg10.dtd">
<svg version="1.0" xmlns="http://www.w3.org/2000/svg"
 width="300.000000pt" height="300.000000pt" viewBox="0 0 300.000000 300.000000"
 preserveAspectRatio="xMidYMid meet">
<metadata>
Created by potrace 1.11, written by Peter Selinger 2001-2013
</metadata>
<g transform="translate(0.000000,300.000000) scale(0.100000,-0.100000)"
fill="#000000" stroke="none">
<path d="M1748 2357 c-124 -47 -224 -152 -259 -271 -82 -274 136 -552 421
-538 185 9 350 151 387 332 8 38 3 152 -7 191 -32 118 -114 216 -226 270 -62
30 -79 34 -164 36 -77 1 -106 -3 -152 -20z"/>
<path d="M703 2357 c-4 -7 -8 -1637 -4 -1730 1 -17 7 -18 59 -12 68 7 154 29
208 51 96 40 224 146 290 240 48 68 95 182 111 269 4 22 7 299 8 615 l0 575
-333 1 c-193 0 -336 -4 -339 -9z"/>
<path d="M1790 1435 c-199 -56 -322 -218 -315 -417 4 -105 22 -159 82 -240
145 -198 450 -221 622 -45 60 61 95 126 118 217 2 8 4 43 4 76 3 187 -121 354
-301 405 -61 17 -156 19 -210 4z"/>
</g>
</svg>
