<?xml version="1.0" standalone="no"?>
<!DOCTYPE svg PUBLIC "-//W3C//DTD SVG 20010904//EN"
 "http://www.w3.org/TR/2001/REC-SVG-20010904/DTD/svg10.dtd">
<svg version="1.0" xmlns="http://www.w3.org/2000/svg"
 width="781.000000pt" height="781.000000pt" viewBox="0 0 781.000000 781.000000"
 preserveAspectRatio="xMidYMid meet">
<metadata>
Created by potrace 1.14, written by Peter Selinger 2001-2017
</metadata>
<g transform="translate(0.000000,781.000000) scale(0.100000,-0.100000)"
fill="#000000" stroke="none">
<path d="M6442 7799 c-78 -13 -190 -63 -274 -121 -92 -63 -1971 -1940 -2011
-2009 -35 -59 -58 -56 -109 14 -21 29 -493 507 -1050 1063 -801 799 -1023
1016 -1061 1034 -70 33 -140 25 -209 -23 -29 -20 -418 -402 -865 -849 -697
-698 -815 -821 -837 -868 -14 -30 -26 -69 -26 -86 0 -86 -4 -82 1108 -1196
l1056 -1057 -621 -624 c-445 -449 -633 -645 -668 -696 -54 -82 -119 -228 -245
-551 -49 -124 -206 -520 -350 -880 -227 -566 -263 -664 -267 -721 -3 -38 -1
-81 6 -102 27 -82 131 -128 241 -107 56 10 1856 726 2028 806 110 51 89 31
893 832 l525 523 42 -53 c22 -29 495 -506 1049 -1059 1074 -1073 1059 -1059
1155 -1059 90 0 87 -3 959 869 560 559 836 842 855 876 39 67 39 133 0 200
-19 34 -353 375 -1030 1053 -550 552 -1025 1021 -1053 1044 -42 32 -51 43 -43
57 5 10 459 468 1009 1019 1068 1069 1072 1073 1120 1218 29 86 38 212 21 296
-16 83 -67 193 -126 270 -26 35 -201 217 -388 404 -277 277 -356 350 -419 389
-131 80 -290 116 -415 94z m193 -444 c61 -36 711 -692 730 -737 21 -53 19
-121 -6 -171 -22 -43 -553 -587 -574 -587 -16 0 -925 913 -925 930 0 17 488
509 542 546 83 58 156 64 233 19z m-4613 -932 c-360 -356 -382 -383 -382 -468
0 -145 164 -248 295 -185 26 13 159 139 378 359 l338 339 264 -271 265 -271
-130 -124 c-131 -124 -162 -167 -175 -233 -21 -111 85 -229 205 -229 74 0 120
32 263 180 l134 139 151 -152 152 -152 -663 -663 -662 -662 -965 965 -965 965
660 660 660 660 259 -259 260 -260 -342 -338z m2328 -2968 l-2095 -2095 -450
450 -450 450 2095 2095 2095 2095 450 -450 450 -450 -2095 -2095z m1158 166
l152 -157 -67 -49 c-106 -77 -628 -601 -652 -655 -27 -59 -26 -104 3 -165 40
-86 97 -125 179 -125 87 1 113 21 471 381 l339 341 266 -266 266 -266 -136
-137 c-75 -76 -143 -152 -152 -168 -39 -78 -30 -155 28 -222 42 -50 93 -75
151 -75 76 0 123 33 262 178 l127 134 260 -260 260 -260 -660 -660 -660 -660
-962 962 -963 963 662 662 c365 365 665 662 668 662 3 -1 74 -72 158 -158z
m-3649 -2521 c1 -6 -1270 -513 -1273 -508 -2 2 113 292 253 646 l256 643 382
-388 c210 -213 382 -390 382 -393z"/>
</g>
</svg>
