<?xml version="1.0" encoding="UTF-8"?>
<svg width="18px" height="14px" viewBox="0 0 18 14" version="1.1" xmlns="http://www.w3.org/2000/svg" xmlns:xlink="http://www.w3.org/1999/xlink">
    <!-- Generator: Sketch 63.1 (92452) - https://sketch.com -->
    <title></title>
    <desc>Created with Sketch.</desc>
    <g id="Page-1" stroke="none" stroke-width="1" fill="none" fill-rule="evenodd">
        <g id="Artboard" transform="translate(-437.000000, -422.000000)" fill="#FB9948" fill-rule="nonzero">
            <g id="Links" transform="translate(302.000000, 415.000000)">
                <path d="M151.312461,21 C151.78121,21 152.179647,20.8359377 152.507771,20.5078137 C152.835895,20.1796896 152.999957,19.7812527 152.999957,19.312504 L152.999957,19.312504 L152.999957,9.18752816 C152.999957,8.71877946 152.835895,8.32034255 152.507771,7.99221851 C152.179647,7.66409447 151.78121,7.50003219 151.312461,7.50003219 L151.312461,7.50003219 L136.687496,7.50003219 C136.218747,7.50003219 135.82031,7.66409447 135.492186,7.99221851 C135.164062,8.32034255 135,8.71877946 135,9.18752816 L135,9.18752816 L135,19.312504 C135,19.7812527 135.164062,20.1796896 135.492186,20.5078137 C135.82031,20.8359377 136.218747,21 136.687496,21 L136.687496,21 L151.312461,21 Z M143.999979,15.9375121 C143.695292,15.9375121 143.320293,15.7851689 142.874981,15.4804819 C142.593732,15.3164196 142.218733,15.0351703 141.749984,14.6367339 L141.749984,14.6367339 L141.433578,14.3554846 C139.089834,12.527364 137.507806,11.2851796 136.687496,10.628931 L136.687496,10.628931 L136.687496,9.18752816 L151.312461,9.18752816 L151.312461,10.628931 C150.492151,11.3086167 148.910123,12.5508016 146.566379,14.3554846 L146.566379,14.3554846 L146.249973,14.6367339 C145.781224,15.0351703 145.406225,15.3164196 145.124976,15.4804819 C144.679664,15.7851689 144.304665,15.9375121 143.999979,15.9375121 Z M151.312461,19.312504 L136.687496,19.312504 L136.687496,12.7734571 L140.730455,16.0078244 C141.339828,16.5000107 141.820296,16.8515724 142.171858,17.0625094 C142.828107,17.4375087 143.43748,17.625008 143.999979,17.625008 C144.562477,17.625008 145.160132,17.4375087 145.792943,17.0625094 C146.167942,16.8515724 146.64841,16.5000107 147.234346,16.0078244 L147.234346,16.0078244 L151.312461,12.7734571 L151.312461,19.312504 Z" id=""></path>
            </g>
        </g>
    </g>
</svg>