<?xml version="1.0" encoding="UTF-8"?>
<svg width="16px" height="17px" viewBox="0 0 16 17" version="1.1" xmlns="http://www.w3.org/2000/svg" xmlns:xlink="http://www.w3.org/1999/xlink">
    <!-- Generator: Sketch 63.1 (92452) - https://sketch.com -->
    <title></title>
    <desc>Created with Sketch.</desc>
    <g id="Page-1" stroke="none" stroke-width="1" fill="none" fill-rule="evenodd">
        <g id="Artboard" transform="translate(-405.000000, -420.000000)" fill="#FB9948" fill-rule="nonzero">
            <g id="Links" transform="translate(302.000000, 415.000000)">
                <path d="M104.898433,9.17190082 C105.414057,9.17190082 105.859368,8.98440144 106.234367,8.60940216 C106.609367,8.23440287 106.796866,7.78909179 106.796866,7.27346784 C106.796866,6.75784389 106.609367,6.31253281 106.234367,5.93753353 C105.859368,5.56253424 105.414057,5.37503487 104.898433,5.37503487 C104.382809,5.37503487 103.937498,5.56253424 103.562499,5.93753353 C103.187499,6.31253281 103,6.75784389 103,7.27346784 C103,7.78909179 103.187499,8.23440287 103.562499,8.60940216 C103.937498,8.98440144 104.382809,9.17190082 104.898433,9.17190082 Z M111.824198,21.1249973 L111.824198,15.9218847 C111.824198,15.1015744 111.941385,14.4804819 112.175759,14.0586079 C112.480446,13.4961093 113.007789,13.2148599 113.757787,13.2148599 C114.507785,13.2148599 115.01169,13.5312654 115.269502,14.1640764 C115.410127,14.5390757 115.480439,15.1484491 115.480439,15.9921971 L115.480439,21.1249973 L118.749962,21.1249973 L118.749962,15.3593861 C118.749962,13.7422024 118.515588,12.5468928 118.046839,11.7734571 C117.437466,10.8125221 116.371062,10.3320543 114.847628,10.3320543 C114.09763,10.3320543 113.441381,10.5195537 112.878883,10.894553 C112.363259,11.1992399 111.98826,11.5859577 111.753885,12.0547064 L111.718729,12.0547064 L111.718729,10.6133036 L108.58983,10.6133036 L108.58983,21.1249973 L111.824198,21.1249973 Z M106.515617,21.1249973 L106.515617,10.6133036 L103.246093,10.6133036 L103.246093,21.1249973 L106.515617,21.1249973 Z" id=""></path>
            </g>
        </g>
    </g>
</svg>